<?xml version="1.0" encoding="utf-8"?>
<!-- Generator: Adobe Illustrator 16.0.0, SVG Export Plug-In . SVG Version: 6.00 Build 0)  -->
<!DOCTYPE svg PUBLIC "-//W3C//DTD SVG 1.1//EN" "http://www.w3.org/Graphics/SVG/1.1/DTD/svg11.dtd">
<svg version="1.1" id="Layer_1" xmlns="http://www.w3.org/2000/svg" xmlns:xlink="http://www.w3.org/1999/xlink" x="0px" y="0px"
	 width="978.5px" height="388.5px" viewBox="0 0 978.5 388.5" enable-background="new 0 0 978.5 388.5" xml:space="preserve">
<g>
	<g>
		<path fill="#7C5396" d="M6.09,163.502h19.946l11.97,17.407l11.967-17.407h19.949l-23.598,33.277v30.725H29.688v-30.725
			L6.09,163.502z"/>
		<path fill="#7C5396" d="M152.466,194.314c0,20.717-14.856,35.314-35.398,35.314c-20.54,0-35.396-14.597-35.396-35.314
			c0-19.352,16.979-32.936,35.396-32.936C135.495,161.378,152.466,174.962,152.466,194.314z M98.991,194.397
			c0,11.043,8.148,19.106,18.077,19.106c9.938,0,18.083-8.063,18.083-19.106c0-8.823-8.146-16.885-18.083-16.885
			C107.14,177.513,98.991,185.574,98.991,194.397z"/>
		<path fill="#7C5396" d="M231.874,163.502v35.989c0,8.241-0.344,16.38-6.711,22.577c-5.347,5.27-13.75,7.134-21.225,7.134
			c-7.466,0-15.872-1.864-21.223-7.134c-6.36-6.197-6.702-14.336-6.702-22.577v-35.989h16.638v33.705
			c0,8.313,0.597,17.396,11.287,17.396c10.701,0,11.293-9.084,11.293-17.396v-33.705H231.874z"/>
		<path fill="#7C5396" d="M283.565,227.504h-16.634v-49.91h-13.753v-14.092h44.142v14.092h-13.754V227.504z"/>
		<path fill="#7C5396" d="M359.4,188.207v-24.705h16.637v64.002H359.4v-26.228h-24.025v26.228h-16.637v-64.002h16.637v24.705H359.4z
			"/>
	</g>
	<g>
		<g>
			<polygon fill="#7C5396" points="639.077,271.206 639.077,146.5 638.838,146.5 638.838,134.581 560.899,134.581 560.899,158.426 
				575.802,158.426 575.802,271.206 560.668,271.206 560.668,295.055 654.2,295.055 654.2,271.206 			"/>
			<path fill="#7C5396" d="M608.828,118.992c17.582,0,31.844-14.277,31.844-31.85c0-17.589-14.262-31.851-31.844-31.851
				c-17.599,0-31.859,14.261-31.859,31.851C576.969,104.715,591.229,118.992,608.828,118.992z"/>
		</g>
		<g>
			<path fill="#7C5396" d="M450.603,35.662c0-4.245,2.809-7.055,7.047-7.055h46.479c4.222,0,7.062,2.81,7.062,7.055v290.969
				c0,2.826,1.403,4.23,4.223,4.23h86.239c4.235,0,7.046,2.826,7.046,7.056v35.179c0,4.23-2.811,7.055-7.046,7.055H457.649
				c-4.238,0-7.047-2.824-7.047-7.055V35.662z"/>
		</g>
		<g id="j3miW5_2_">
			<g>
				<path fill="#7C5396" d="M722.116,10.849c0.505,0,0.991,0,1.495,0c19.911,6.231,16.896,37.279,19.515,61.597
					c6.828,63.48,24.347,131.896,34.517,191.218c18.994-70.602,21.177-155.558,42.026-224.572
					c10.003-0.674,17.758,3.233,24.021,8.976c0,2.139,0,4.276,0,6.413c-24.522,94.119-28.035,206.176-55.542,297.727
					c-3.009-0.426-4.68,0.26-4.497,2.565c-1.495,0-3.016,0-4.513,0c-3.626-5.265-10.779-3.664-16.506-1.282
					c-28.155-12.659-35.21-51.197-43.518-85.979c-15.107-63.291-31.46-143.466-39.026-209.175c0-7.701,0-15.407,0-23.102
					c3.571-3.016,10.079-8.04,15.018-2.565c-0.229-3.184-0.281-6.222,2.986-6.422c6.838,2.306,9.052-2.809,15.018,2.574
					c0-5.13,0-10.262,0-15.405C714.145,10.889,721.477,13.729,722.116,10.849z"/>
			</g>
		</g>
		<g>
			<path fill="#7C5396" d="M907.223,170.777h50.611v33.506h-50.611v51.317h63.688v33.517H870.35V87.142H970.91v33.508h-63.688
				V170.777z"/>
		</g>
	</g>
	<g>
		<path fill="#7C5396" d="M6.09,163.502h19.946l11.97,17.407l11.967-17.407h19.949l-23.598,33.277v30.725H29.688v-30.725
			L6.09,163.502z"/>
		<path fill="#7C5396" d="M152.466,194.314c0,20.717-14.856,35.314-35.398,35.314c-20.54,0-35.396-14.597-35.396-35.314
			c0-19.352,16.979-32.936,35.396-32.936C135.495,161.378,152.466,174.962,152.466,194.314z M98.991,194.397
			c0,11.043,8.148,19.106,18.077,19.106c9.938,0,18.083-8.063,18.083-19.106c0-8.823-8.146-16.885-18.083-16.885
			C107.14,177.513,98.991,185.574,98.991,194.397z"/>
		<path fill="#7C5396" d="M231.874,163.502v35.989c0,8.241-0.344,16.38-6.711,22.577c-5.347,5.27-13.75,7.134-21.225,7.134
			c-7.466,0-15.872-1.864-21.223-7.134c-6.36-6.197-6.702-14.336-6.702-22.577v-35.989h16.638v33.705
			c0,8.313,0.597,17.396,11.287,17.396c10.701,0,11.293-9.084,11.293-17.396v-33.705H231.874z"/>
		<path fill="#7C5396" d="M283.565,227.504h-16.634v-49.91h-13.753v-14.092h44.142v14.092h-13.754V227.504z"/>
		<path fill="#7C5396" d="M359.4,188.207v-24.705h16.637v64.002H359.4v-26.228h-24.025v26.228h-16.637v-64.002h16.637v24.705H359.4z
			"/>
	</g>
</g>
</svg>
